<svg width="1200" height="760" viewBox="0 0 1200 760" fill="none" xmlns="http://www.w3.org/2000/svg">
  <defs>
    <linearGradient id="bg" x1="0" y1="0" x2="1200" y2="760" gradientUnits="userSpaceOnUse">
      <stop stop-color="#12395D"/>
      <stop offset="1" stop-color="#1E6F8F"/>
    </linearGradient>
    <linearGradient id="panel" x1="90" y1="110" x2="1110" y2="690" gradientUnits="userSpaceOnUse">
      <stop stop-color="#2E8A99" stop-opacity="0.95"/>
      <stop offset="1" stop-color="#47B476" stop-opacity="0.9"/>
    </linearGradient>
  </defs>
  <rect width="1200" height="760" rx="36" fill="url(#bg)"/>
  <rect x="90" y="110" width="1020" height="560" rx="30" fill="url(#panel)"/>
  <rect x="180" y="180" width="840" height="420" rx="22" fill="#0F5A70" fill-opacity="0.45" stroke="#D9F3FF" stroke-opacity="0.38" stroke-width="4"/>
  <line x1="600" y1="180" x2="600" y2="600" stroke="#D9F3FF" stroke-opacity="0.5" stroke-width="4"/>
  <circle cx="600" cy="390" r="72" stroke="#D9F3FF" stroke-opacity="0.5" stroke-width="4"/>
  <rect x="180" y="290" width="120" height="200" rx="16" stroke="#D9F3FF" stroke-opacity="0.42" stroke-width="4"/>
  <rect x="900" y="290" width="120" height="200" rx="16" stroke="#D9F3FF" stroke-opacity="0.42" stroke-width="4"/>
  <rect x="210" y="80" width="260" height="62" rx="14" fill="#FFFFFF" fill-opacity="0.2"/>
  <text x="240" y="120" fill="#E6FBFF" font-family="Arial, sans-serif" font-size="34" font-weight="700">CampusCourt</text>
  <rect x="750" y="80" width="260" height="62" rx="14" fill="#FFFFFF" fill-opacity="0.16"/>
  <text x="790" y="120" fill="#E6FBFF" font-family="Arial, sans-serif" font-size="26" font-weight="700">Booking Flow</text>
  <circle cx="350" cy="650" r="18" fill="#F9A03F"/>
  <circle cx="390" cy="650" r="18" fill="#FFD166"/>
  <circle cx="430" cy="650" r="18" fill="#A7E8BD"/>
  <rect x="740" y="620" width="300" height="18" rx="9" fill="#FFFFFF" fill-opacity="0.25"/>
  <rect x="740" y="620" width="220" height="18" rx="9" fill="#A7E8BD"/>
</svg>
