<svg width="640" height="420" viewBox="0 0 640 420" fill="none" xmlns="http://www.w3.org/2000/svg">
  <defs>
    <linearGradient id="g1" x1="0" y1="0" x2="640" y2="420" gradientUnits="userSpaceOnUse">
      <stop stop-color="#DFF3FF"/>
      <stop offset="1" stop-color="#C8ECDD"/>
    </linearGradient>
  </defs>
  <rect width="640" height="420" rx="24" fill="url(#g1)"/>
  <rect x="48" y="56" width="544" height="300" rx="20" fill="#FFFFFF" fill-opacity="0.82" stroke="#1F6E8C" stroke-opacity="0.3" stroke-width="3"/>
  <circle cx="110" cy="112" r="22" fill="#1F6E8C" fill-opacity="0.18"/>
  <rect x="150" y="96" width="248" height="14" rx="7" fill="#1F6E8C" fill-opacity="0.32"/>
  <rect x="150" y="122" width="180" height="10" rx="5" fill="#1F6E8C" fill-opacity="0.22"/>
  <rect x="88" y="170" width="470" height="44" rx="12" fill="#1F6E8C" fill-opacity="0.1"/>
  <rect x="88" y="232" width="470" height="44" rx="12" fill="#1F6E8C" fill-opacity="0.08"/>
  <rect x="88" y="294" width="470" height="44" rx="12" fill="#1F6E8C" fill-opacity="0.06"/>
  <circle cx="110" cy="192" r="12" fill="#2D936C"/>
  <circle cx="110" cy="254" r="12" fill="#2D936C"/>
  <circle cx="110" cy="316" r="12" fill="#2D936C"/>
  <rect x="138" y="184" width="210" height="14" rx="7" fill="#1F6E8C" fill-opacity="0.34"/>
  <rect x="138" y="246" width="170" height="14" rx="7" fill="#1F6E8C" fill-opacity="0.3"/>
  <rect x="138" y="308" width="190" height="14" rx="7" fill="#1F6E8C" fill-opacity="0.28"/>
  <rect x="408" y="178" width="130" height="28" rx="14" fill="#2D936C" fill-opacity="0.85"/>
  <rect x="408" y="240" width="130" height="28" rx="14" fill="#2D936C" fill-opacity="0.85"/>
  <rect x="408" y="302" width="130" height="28" rx="14" fill="#2D936C" fill-opacity="0.85"/>
  <text x="76" y="390" fill="#24536E" font-family="Arial, sans-serif" font-size="20" font-weight="700">Venue catalog and slot availability overview</text>
</svg>
