<svg width="640" height="420" viewBox="0 0 640 420" fill="none" xmlns="http://www.w3.org/2000/svg">
  <defs>
    <linearGradient id="g3" x1="0" y1="0" x2="640" y2="420" gradientUnits="userSpaceOnUse">
      <stop stop-color="#E5E4FF"/>
      <stop offset="1" stop-color="#DDF2FF"/>
    </linearGradient>
  </defs>
  <rect width="640" height="420" rx="24" fill="url(#g3)"/>
  <rect x="60" y="56" width="520" height="308" rx="22" fill="#FFFFFF" fill-opacity="0.88" stroke="#5346AF" stroke-opacity="0.28" stroke-width="3"/>
  <rect x="92" y="88" width="220" height="120" rx="16" fill="#5346AF" fill-opacity="0.1"/>
  <rect x="328" y="88" width="220" height="120" rx="16" fill="#0A9396" fill-opacity="0.12"/>
  <rect x="92" y="224" width="456" height="108" rx="16" fill="#1D3557" fill-opacity="0.08"/>
  <text x="114" y="124" fill="#3A2F88" font-family="Arial, sans-serif" font-size="18" font-weight="700">Gateway</text>
  <text x="350" y="124" fill="#005D63" font-family="Arial, sans-serif" font-size="18" font-weight="700">Services</text>
  <circle cx="114" cy="154" r="8" fill="#2D936C"/>
  <rect x="132" y="146" width="130" height="16" rx="8" fill="#3A2F88" fill-opacity="0.32"/>
  <circle cx="350" cy="154" r="8" fill="#2D936C"/>
  <rect x="368" y="146" width="130" height="16" rx="8" fill="#005D63" fill-opacity="0.28"/>
  <path d="M130 290L190 258L248 278L312 246L374 264L438 230L500 248" stroke="#2D936C" stroke-width="6" stroke-linecap="round" stroke-linejoin="round"/>
  <circle cx="130" cy="290" r="8" fill="#2D936C"/>
  <circle cx="190" cy="258" r="8" fill="#2D936C"/>
  <circle cx="248" cy="278" r="8" fill="#2D936C"/>
  <circle cx="312" cy="246" r="8" fill="#2D936C"/>
  <circle cx="374" cy="264" r="8" fill="#2D936C"/>
  <circle cx="438" cy="230" r="8" fill="#2D936C"/>
  <circle cx="500" cy="248" r="8" fill="#2D936C"/>
  <text x="106" y="340" fill="#223A58" font-family="Arial, sans-serif" font-size="20" font-weight="700">Live monitoring and usage trends</text>
</svg>
